<svg width="160" height="31" viewBox="0 0 160 31" fill="none" xmlns="http://www.w3.org/2000/svg">
  <g clip-path="url(#clip0_13_860)">
    <path d="M67.99 22.3788V7.93515H70.7032V9.83981C71.581 8.25259 73.4164 7.45898 75.0922 7.45898C76.9276 7.45898 78.6833 8.33195 79.4813 10.2366C80.5985 8.17323 82.5137 7.45898 84.3491 7.45898C86.9027 7.45898 89.3765 9.20492 89.3765 13.0142V22.4582H86.5835V13.3317C86.5835 11.427 85.6259 9.99853 83.4713 9.99853C81.4763 9.99853 80.1197 11.5857 80.1197 13.6491V22.4582H77.2469V13.3317C77.2469 11.427 76.369 9.99853 74.1346 9.99853C72.1396 9.99853 70.7032 11.5064 70.7032 13.6491V22.3788H67.99Z" fill="white"/>
    <path d="M94.005 28.0935V7.93587H96.798V10.158C97.596 8.72947 99.3516 7.53906 101.666 7.53906C106.055 7.53906 108.369 10.8722 108.369 15.0783C108.369 19.3638 105.815 22.7763 101.586 22.7763C99.3516 22.7763 97.6758 21.7446 96.8778 20.3955V28.0935H94.005ZM101.107 10.0786C98.4738 10.0786 96.798 12.2213 96.798 15.1577C96.798 18.1734 98.5536 20.3161 101.107 20.3161C103.741 20.3161 105.416 18.1734 105.416 15.1577C105.416 12.2213 103.82 10.0786 101.107 10.0786Z" fill="white"/>
    <path d="M111.96 22.3789V0.554688H114.833V22.3789H111.96Z" fill="white"/>
    <path d="M121.057 0.396484C122.175 0.396484 123.132 1.26945 123.132 2.45986C123.132 3.57091 122.254 4.44388 121.057 4.44388C119.94 4.44388 119.062 3.57091 119.062 2.45986C119.062 1.26945 119.94 0.396484 121.057 0.396484ZM119.701 22.3794V7.93575H122.494V22.4588H119.701V22.3794Z" fill="white"/>
    <path d="M127.362 22.3789V0.554688H130.155V9.91925C130.873 8.64948 132.549 7.45907 134.943 7.45907C139.332 7.45907 141.646 10.8716 141.646 15.0777C141.646 19.3632 139.172 22.7757 134.863 22.7757C132.708 22.7757 131.032 21.8234 130.155 20.2361V22.3789H127.362ZM134.464 9.99861C131.91 9.99861 130.155 11.9826 130.155 15.0777C130.155 18.2521 131.99 20.2361 134.464 20.2361C137.097 20.2361 138.773 18.1728 138.773 15.0777C138.773 11.9033 137.097 9.99861 134.464 9.99861Z" fill="white"/>
    <path d="M146.753 0.396484C147.87 0.396484 148.828 1.26945 148.828 2.45986C148.828 3.57091 147.95 4.44388 146.753 4.44388C145.636 4.44388 144.758 3.57091 144.758 2.45986C144.678 1.26945 145.636 0.396484 146.753 0.396484ZM145.317 22.3794V7.93575H148.11V22.4588H145.317V22.3794Z" fill="white"/>
    <path d="M60.9676 7.77786V9.99996C60.1696 8.73019 58.4938 7.61914 56.2594 7.61914C51.9501 7.61914 49.4763 10.9523 49.4763 15.3171C49.4763 19.5232 51.7905 22.8564 56.1796 22.8564C58.5736 22.8564 60.2494 21.7453 61.0474 20.2375V22.4596H63.8404V7.77786H60.9676ZM56.6584 20.3169C54.0249 20.3169 52.3491 18.1741 52.3491 15.2378C52.3491 12.2221 54.0249 10.0793 56.6584 10.0793C59.2918 10.0793 60.9676 12.2221 60.9676 15.2378C60.9676 18.1741 59.2918 20.3169 56.6584 20.3169Z" fill="white"/>
    <path d="M24.2593 23.9677C19.3915 23.9677 15.4015 19.9997 15.4015 15.1586C15.4015 10.3176 19.3915 6.34961 24.2593 6.34961C29.1272 6.34961 33.1172 10.3176 33.1172 15.1586C33.1172 19.9997 29.207 23.9677 24.2593 23.9677ZM24.2593 8.65107C20.6683 8.65107 17.7157 11.5874 17.7157 15.1586C17.7157 18.7299 20.6683 21.6662 24.2593 21.6662C27.8504 21.6662 30.803 18.7299 30.803 15.1586C30.803 11.5874 27.9302 8.65107 24.2593 8.65107Z" fill="white"/>
    <path d="M24.2593 30.3158C15.8803 30.3158 9.01746 23.4908 9.01746 15.1579C9.01746 6.82502 15.8803 0 24.2593 0C32.7182 0 39.581 6.82502 39.581 15.1579C39.581 23.4908 32.7182 30.3158 24.2593 30.3158ZM24.2593 2.30146C17.0773 2.30146 11.2519 8.09479 11.2519 15.2373C11.2519 22.3797 17.0773 28.173 24.2593 28.173C31.4414 28.173 37.2668 22.3797 37.2668 15.2373C37.2668 8.09479 31.4414 2.30146 24.2593 2.30146Z" fill="white"/>
    <path d="M24.2594 17.6171C25.616 17.6171 26.6534 16.5061 26.6534 15.2363C26.6534 13.8872 25.5362 12.8555 24.2594 12.8555C22.9028 12.8555 21.8654 13.9665 21.8654 15.2363C21.8654 16.5061 22.9826 17.6171 24.2594 17.6171Z" fill="white"/>
    <path d="M8.85786 23.9677C3.99003 23.9677 0 19.9997 0 15.1586C0 10.3176 3.99003 6.34961 8.85786 6.34961C13.7257 6.34961 17.7157 10.3176 17.7157 15.1586C17.7157 19.9997 13.7257 23.9677 8.85786 23.9677ZM8.85786 8.65107C5.26683 8.65107 2.31421 11.5874 2.31421 15.1586C2.31421 18.7299 5.26683 21.6662 8.85786 21.6662C12.4489 21.6662 15.4015 18.7299 15.4015 15.1586C15.4015 11.5874 12.4489 8.65107 8.85786 8.65107Z" fill="white"/>
    <path d="M8.85785 17.6176C10.2145 17.6176 11.3317 16.5066 11.3317 15.1574C11.3317 13.8083 10.2145 12.6973 8.85785 12.6973C7.50124 12.6973 6.38403 13.8083 6.38403 15.1574C6.38403 16.5066 7.50124 17.6176 8.85785 17.6176Z" fill="white"/>
    <path d="M160 10.4764V7.9369H156.808V3.33398H154.254V7.9369H151.94H151.142V10.4764H153.935V18.4125C153.935 21.0314 155.531 22.5393 158.005 22.5393C158.963 22.5393 159.681 22.3806 159.92 22.3012V19.9204C159.681 19.9997 159.122 20.0791 158.803 20.0791C157.287 20.0791 156.808 19.4442 156.808 18.0951V10.5558H160V10.4764Z" fill="white"/>
  </g>
  <defs>
    <clipPath id="clip0_13_860">
      <rect width="160" height="30.3158" fill="white"/>
    </clipPath>
  </defs>
</svg>