<svg width="144" height="39" viewBox="0 0 144 39" fill="none" xmlns="http://www.w3.org/2000/svg">
<g clip-path="url(#clip0_60_725)">
<path d="M143.625 16.034H134.497V21.6595H142.321V25.684H134.497V33.2467H143.811V37.6826H129.28V11.6009H143.997L143.625 16.034Z" fill="black"/>
<path d="M122.763 37.6802H116.634C116.634 37.6802 112.999 19.8532 112.888 19.1083C112.776 19.8532 109.333 37.6802 109.333 37.6802H103.207L98.885 11.604H104.277C104.277 11.604 106.098 27.8411 106.284 30.2259C106.359 29.5922 109.791 11.604 109.791 11.604H116.178C116.178 11.604 119.327 26.2819 119.814 30.2286C120.15 26.2041 121.693 11.604 121.693 11.604H127.085L122.763 37.6802Z" fill="black"/>
<path d="M94.4464 37.6826L93.3652 32.6158H86.0637L84.9826 37.6826H79.4683L86.4723 11.6009H92.9566L99.9607 37.6826H94.4464ZM91.1306 22.1069C90.4969 19.1636 89.7881 15.3252 89.7159 14.9528C89.3796 16.6288 88.9321 19.1636 88.2984 22.1069L86.9198 28.5912H92.5091L91.1306 22.1069Z" fill="black"/>
<path d="M72.1556 37.6826L70.5547 31.757C69.921 29.3723 68.9538 27.6963 68.2812 26.9875L66.1577 27.1738V37.6798H60.9408V11.5981H68.0949C73.6843 11.5981 77.7088 12.9016 77.7088 18.9746C77.7088 23.1103 75.8466 25.0475 72.9783 26.0537C73.9845 26.6874 74.9155 28.3633 75.5492 30.1894L78.0813 37.6771L72.1556 37.6826ZM67.8337 15.7366H66.1577V23.5244C69.6986 23.1881 72.4919 22.9296 72.4919 19.0913C72.4919 16.5926 71.1495 15.7366 67.8337 15.7366Z" fill="black"/>
<path d="M57.6806 36.7127C55.7073 37.2714 52.0913 38.0552 49.0006 38.0552C44.1923 38.0552 39.0504 36.7127 39.0504 25.0143C39.0504 13.352 45.2735 11.2285 50.4515 11.2285C53.2447 11.2285 55.3682 11.9734 56.5605 12.571V16.7428C55.2931 16.2954 52.6472 15.4393 50.4515 15.4393C47.8055 15.4393 44.2673 16.854 44.2673 24.6419C44.2673 32.8772 47.0245 33.8833 48.9256 33.8833C50.0068 33.8833 51.7939 33.6582 52.4665 33.5109V25.6508H48.9256L48.5531 21.6651H57.6806V36.7127Z" fill="black"/>
<path d="M23.8443 26.8237L23.9833 26.6681C24.7004 25.7953 25.0089 25.5396 25.6704 24.3639C25.9817 23.8247 26.2874 22.1599 26.2652 21.1816L26.2596 11.601H33.8946L33.8863 20.7619C33.8057 22.8186 33.889 24.2027 33.222 26.4012C32.5744 28.5302 31.521 30.2062 30.2091 31.4347L23.8277 37.6855L18.4218 32.313L23.0633 27.6937L23.8443 26.8237Z" fill="black"/>
<path d="M10.0503 26.8237L9.90851 26.6681C9.19143 25.7953 8.88292 25.5396 8.22142 24.3639C7.91013 23.8247 7.6044 22.1599 7.62664 21.1816L7.63219 11.601L0 11.6038L0.00833816 20.7646C0.0889404 22.8214 0.00555879 24.2055 0.672612 26.404C1.32021 28.533 2.3736 30.209 3.68547 31.4375L10.0669 37.6855L15.4728 32.313L10.8313 27.6937L10.0503 26.8237Z" fill="black"/>
<path d="M14.7669 14.6362L15.3534 14.1526H14.3778L14.7669 14.6362ZM21.7376 19.3806L21.732 14.4694C21.8571 14.0914 21.4485 14.1748 21.2873 14.2276C20.662 14.4611 20.2006 14.9697 20.1144 15.6423V19.2388L20.0727 19.6641C19.9727 19.8976 19.8004 20.1282 19.5474 20.2089C19.339 20.2478 19.1027 20.2283 18.9193 20.1477L17.7075 18.9553L17.4851 18.6329C17.3601 18.2688 17.3601 17.9075 17.5657 17.5823C18.1411 16.8097 18.961 16.4344 19.3223 15.5812C19.6114 14.7779 19.225 13.9636 18.6358 13.4383H19.289C19.1139 12.9463 18.5357 12.9936 18.1355 12.9936C18.1077 12.9658 18.0799 12.9408 18.0577 12.913C17.7408 12.5238 17.6047 12.1514 17.3573 12.3071C17.1794 12.4822 17.4796 12.66 17.713 12.9936H17.374C17.3462 12.9936 17.3212 12.9602 17.285 12.9157C16.9404 12.4961 16.857 12.1347 16.5874 12.321C16.4512 12.4849 16.668 12.6656 16.9209 12.9936C16.7542 12.988 16.4818 13.0686 16.3512 13.1548C15.6924 13.1548 14.9587 13.1575 14.4084 13.1575C14.7697 14.1164 16.0426 13.7301 16.4318 13.8468C16.2483 14.0775 16.0065 14.2915 15.8064 14.55C15.9287 14.5945 16.0121 14.5889 16.1288 14.5889C16.4623 14.6112 16.7403 14.4666 16.9376 14.2054C17.16 14.2054 17.4407 14.2082 17.6519 14.2082C16.8181 15.0725 15.7953 16.0954 14.9559 16.9042L13.3188 15.3171L13.3216 14.5306C13.2883 14.3027 12.9853 14.2637 12.7935 14.3277C12.6323 14.4027 12.5934 14.6529 12.5879 14.8141C12.574 14.8141 12.3294 14.5667 12.1487 14.6112C12.032 14.6473 11.9069 14.6862 11.8458 14.8141C11.7791 15.017 11.9347 15.2115 12.0403 15.3533C12.0264 15.3505 11.8819 15.4005 11.7235 15.42C11.5289 15.4839 11.3733 15.6618 11.4455 15.8647C11.5289 16.226 12.0876 16.1232 12.5434 16.1259C12.5351 16.6068 12.3822 17.0042 12.8158 17.196C13.0187 17.2655 13.1993 17.121 13.3216 16.9736C13.7246 17.3628 14.1554 17.7408 14.4751 18.166C13.9553 18.7163 13.3161 19.3306 12.8019 19.8364C12.5184 19.5807 12.2905 19.2805 12.0709 19.4C11.9597 19.4167 11.8485 19.5168 11.8069 19.6224C11.7318 19.8309 11.9792 20.1644 11.9764 20.1755L11.7263 20.1866C11.6012 20.2172 11.5178 20.3172 11.465 20.4284C11.44 20.5757 11.4789 20.7564 11.6456 20.8314C11.7429 20.8926 11.9959 20.8898 11.9875 20.9065C11.9959 20.8981 11.8319 21.0593 11.8069 21.1538C11.7707 21.29 11.7763 21.4568 11.8875 21.5596C12.3266 21.8598 12.5601 21.4957 12.9436 21.0844C13.2605 21.3706 13.3994 21.6791 13.7858 21.6402C13.9915 21.5846 14.1249 21.429 14.047 21.1955C13.9748 20.9926 13.8997 20.9926 13.6023 20.6508L14.9281 19.4028C15.459 19.9615 15.559 20.0449 16.0454 20.5702C15.6341 21.0121 15.081 21.3234 14.9142 21.8848C14.8864 22.752 14.9059 23.3162 14.8753 24.0861L14.325 24.6253C13.9998 24.364 13.9915 24.0583 13.619 24.1611C13.4717 24.1806 13.4106 24.3084 13.3605 24.4113C13.3105 24.5975 13.4523 24.7559 13.5634 24.8977C13.3494 24.8977 13.4995 24.8337 13.2188 24.8893C13.0048 24.9922 12.9297 25.0839 12.9408 25.2785C12.9964 25.5564 13.1187 25.7259 13.544 25.6787C13.4217 25.8454 13.3188 25.9789 13.3383 26.1706C13.3772 26.3291 13.4495 26.3819 13.5606 26.4124C13.9498 26.5181 14.1666 26.115 14.4528 25.8538C14.7419 26.1234 14.8836 26.4263 15.2616 26.4569C15.3978 26.4708 15.459 26.4069 15.5507 26.3541C15.8008 26.0372 15.3839 25.7315 15.1782 25.4397C15.4979 24.9838 16.0732 24.4947 16.4818 24.0388L16.5012 23.9166C16.5012 23.4413 16.4929 23.2829 16.4929 22.8854C16.4929 22.3406 16.5596 22.2406 16.9848 21.9626L17.2572 21.8376C17.3434 22.2406 17.2211 22.6325 17.3795 23.0299C17.7436 23.8665 19.036 23.7637 19.667 23.7637V24.6559L19.3529 24.389C19.3529 24.389 19.0527 24.1 18.8331 24.1417C18.7164 24.1611 18.5913 24.2473 18.5496 24.364C18.469 24.5669 18.5941 24.7337 18.7303 24.8699C18.4663 24.8615 18.2689 24.881 18.1772 25.0756C18.1133 25.2256 18.066 25.3452 18.1967 25.5119C18.4579 25.7537 18.4857 25.6426 18.7108 25.6759C18.6136 25.8038 18.5274 25.9399 18.508 26.1011C18.5219 26.229 18.6302 26.3541 18.7498 26.4041C19.1945 26.4791 19.2917 26.179 19.6197 25.8371C20.12 26.2707 20.1144 26.4541 20.5286 26.4236C20.6397 26.4041 20.7203 26.3179 20.7704 26.2207C20.9316 25.8621 20.5814 25.7148 20.3646 25.4341C20.5258 25.2173 20.851 25.0366 20.8704 24.8476V22.5574C20.2201 22.5296 19.9588 22.613 19.6975 22.4435C19.0694 22.0599 19.314 21.2261 19.314 20.6452L19.3946 20.6258C19.8031 20.8648 20.4396 20.7925 20.851 20.6063C21.3124 20.3589 21.6765 19.8781 21.7376 19.3806ZM21.1928 27.0295L16.9737 31.2402L12.7546 27.0295L11.0175 25.2979C10.7451 24.8893 10.2031 24.6114 9.81681 23.3579C9.60558 22.4991 9.65283 21.2956 9.65283 21.2956V11.6011H24.3085V21.2956C24.328 22.0293 24.3085 22.802 24.0584 23.4385C23.5748 24.5975 23.2079 24.9838 22.93 25.3007L21.1928 27.0295Z" fill="black"/>
<path d="M16.7958 13.2267C16.7791 13.2739 16.6874 13.2072 16.668 13.324C16.7263 13.324 16.8681 13.424 16.9098 13.3295C16.9237 13.2767 16.8431 13.2183 16.7958 13.2267Z" fill="black"/>
<path d="M16.7819 -0.000323772H16.5123V0.38323H16.1121V0.652832H16.7791V-0.000323772" fill="black"/>
<path d="M17.1877 -0.000323772H17.4573V0.38323H17.8576V0.652832H17.1905V-0.000323772" fill="black"/>
<path d="M22.274 9.88308H20.7592L22.274 5.73902V9.88308ZM19.1972 5.14145H22.1878L20.598 9.51064L19.1972 5.14145ZM17.4712 9.88308L19.0416 5.56947L20.4285 9.88308H17.4712ZM17.4601 5.14145H18.8998L17.4601 9.0576V5.14145ZM19.0555 3.33485C19.3223 3.33485 19.5363 3.66004 19.5363 4.05749C19.5363 4.45772 19.3195 4.78013 19.0555 4.78013C18.7887 4.78013 18.5746 4.45772 18.5746 4.05749C18.5746 3.66004 18.7887 3.33485 19.0555 3.33485ZM16.5151 9.20769L15.0254 5.14145H16.5151V9.20769ZM13.4967 9.88308L14.8836 5.56947L16.454 9.88308H13.4967ZM11.7374 5.14145H14.7308L13.3272 9.51064L11.7374 5.14145ZM11.6512 9.88308V5.73346L13.1687 9.88308H11.6512ZM14.8781 3.33485C15.1449 3.33485 15.3589 3.66004 15.3589 4.05749C15.3589 4.45772 15.1421 4.78013 14.8781 4.78013C14.6112 4.78013 14.3972 4.45772 14.3972 4.05749C14.3972 3.66004 14.614 3.33485 14.8781 3.33485ZM17.4573 1.87845V1.32535H17.852V1.05853H17.1877L17.1905 5.14145L17.1877 9.88308H16.7819V3.88794L16.7792 1.86733V1.05853H16.1093V1.32535H16.5123V1.87567C13.6913 2.00074 11.4594 3.29038 11.3816 4.87741V10.1499H16.5123H22.5408V4.87741C22.463 3.29872 20.2562 2.01464 17.4573 1.87845Z" fill="black"/>
</g>
<defs>
<clipPath id="clip0_60_725">
<rect width="144" height="38.0637" fill="white"/>
</clipPath>
</defs>
</svg>
