<svg width="120" height="39" viewBox="0 0 120 39" fill="none" xmlns="http://www.w3.org/2000/svg">
<g clip-path="url(#clip0_60_235)">
<path d="M0 0V38.3193H39.6218V0H0ZM32.196 7.94648C32.196 7.97973 32.196 8.0296 32.196 8.07948C31.9037 13.9479 29.7722 19.0849 25.6468 23.4072C21.0228 28.2449 15.2471 30.7718 8.42286 31.1376C8.23378 31.1542 8.07907 31.1542 7.94156 31.1209H7.39149V26.3331H7.90718H7.92437C13.0125 26.0671 16.4332 23.2742 18.9772 19.301C21.1775 15.8763 22.1401 12.086 22.2776 8.0961C22.2776 8.04623 22.2776 7.99635 22.2776 7.94648V7.19838H32.1616V7.94648H32.196Z" fill="black"/>
<path d="M48.1306 30.9379V7.24805H52.5655V16.9401H65.1139V7.24805H69.5659V30.9379H65.1139V20.5476H52.5655V30.9379H48.1306Z" fill="black"/>
<path d="M94.3017 11.055C93.6485 9.87471 92.6687 8.94374 91.3967 8.26214C90.1246 7.58054 88.5432 7.24805 86.6524 7.24805H74.2072V30.9379H78.642V22.9415H86.6008C88.4916 22.9415 90.0731 22.609 91.3795 21.9274C92.6687 21.2458 93.6485 20.3315 94.3017 19.1511C94.9549 17.9708 95.2987 16.6242 95.2987 15.1114C95.2987 13.582 94.9721 12.252 94.3017 11.055ZM90.2622 17.3225C89.9184 17.9708 89.4027 18.4862 88.6979 18.8519C87.9931 19.2176 87.0993 19.4005 85.9992 19.4005H78.642V10.8389H85.982C87.0821 10.8389 87.9931 11.0218 88.6979 11.3709C89.4027 11.72 89.9184 12.2354 90.2622 12.8671C90.6059 13.5155 90.7778 14.2469 90.7778 15.0948C90.7778 15.926 90.6059 16.6741 90.2622 17.3225Z" fill="black"/>
<path d="M98.6334 30.9379V7.24805H111.096C112.866 7.24805 114.345 7.51404 115.514 8.04602C116.682 8.578 117.576 9.30948 118.161 10.2404C118.745 11.1714 119.037 12.2188 119.037 13.3825C119.037 14.3467 118.848 15.1613 118.47 15.8595C118.092 16.5411 117.576 17.0897 116.923 17.5219C116.27 17.9542 115.548 18.2534 114.757 18.4363V18.669C115.634 18.7189 116.459 18.9683 117.267 19.4338C118.075 19.8992 118.728 20.5642 119.226 21.4121C119.742 22.2599 120 23.2906 120 24.4876C120 25.7178 119.691 26.815 119.072 27.7959C118.453 28.7767 117.525 29.5414 116.304 30.1066C115.067 30.6719 113.52 30.9545 111.646 30.9545H98.6334V30.9379ZM103.068 17.3225H110.546C111.319 17.3225 112.007 17.1895 112.608 16.9068C113.227 16.6409 113.709 16.2419 114.07 15.7431C114.431 15.2444 114.602 14.6459 114.602 13.9477C114.602 13.0334 114.276 12.2686 113.605 11.6868C112.935 11.0883 111.955 10.7891 110.649 10.7891H103.068V17.3225ZM103.068 27.347H110.941C112.557 27.347 113.709 27.0478 114.431 26.4493C115.153 25.8508 115.496 25.0861 115.496 24.1385C115.496 23.4402 115.324 22.8085 114.963 22.2433C114.602 21.6781 114.087 21.2292 113.434 20.8967C112.78 20.5642 111.99 20.398 111.061 20.398H103.068V27.347Z" fill="black"/>
</g>
<defs>
<clipPath id="clip0_60_235">
<rect width="120" height="38.3193" fill="white"/>
</clipPath>
</defs>
</svg>
