<svg width="139" height="36" viewBox="0 0 139 36" fill="none" xmlns="http://www.w3.org/2000/svg">
<g clip-path="url(#clip0_13_513)">
<path d="M35.7284 1.57861H0V35.9395H35.7284V1.57861ZM34.7184 35.0289H1.00999V2.54995H34.7816L34.7184 35.0289Z" fill="black"/>
<path d="M0.946777 35.0287V2.5498H34.7183V35.0287H0.946777Z" fill="white"/>
<path d="M17.801 22.9477L28.5322 33.2681L32.7615 29.2006L21.9672 18.8802L24.0503 16.8769V12.8701L25.5653 11.4131V14.7521L27.0172 16.1484L32.2565 11.1096L33.7084 12.4452C33.7084 11.5952 33.4559 8.55983 30.9309 6.25292C28.1534 3.64247 25.3128 5.16017 24.366 6.0708L19.316 10.9275L20.5785 12.1416L17.801 14.8128L15.0235 12.1416L16.286 10.9275L11.2361 6.0708C10.2892 5.16017 7.44861 3.58176 4.67114 6.25292C2.14616 8.62054 1.95679 11.5952 1.95679 12.4452L3.34552 11.1096L8.58485 16.1484L10.0367 14.7521V11.4131L11.5517 12.8701V16.8769L13.6348 18.8802L2.96678 29.0792L7.19611 33.1467L17.801 22.9477Z" fill="black"/>
<path d="M45.5759 4.43174H45.9547C47.2172 4.43174 48.6059 4.67457 48.6059 6.19228C48.6059 7.70999 47.2172 7.95282 45.9547 7.95282H45.5759V4.43174ZM49.3003 9.89548C51.3834 9.53123 52.5196 7.89211 52.5196 5.94945C52.5196 2.97474 50.3103 1.63916 47.4065 1.63916H41.7253V15.7235H45.5128V10.3204H45.5759L49.174 15.7235H53.9084L49.3003 9.89548Z" fill="black"/>
<path d="M60.0312 8.7418C61.4831 8.7418 62.3037 9.71313 62.3037 10.9273C62.3037 12.1415 61.4831 13.0521 60.0312 13.0521C58.5794 13.0521 57.7587 12.1415 57.7587 10.9273C57.8219 9.71313 58.6425 8.7418 60.0312 8.7418ZM65.7755 6.13134H62.2406V7.04196C61.4831 6.19205 60.2837 5.76709 59.1475 5.76709C56.1806 5.76709 54.1606 8.13471 54.1606 10.8666C54.1606 13.5985 56.2438 15.9661 59.2106 15.9661C60.3468 15.9661 61.6093 15.5411 62.2406 14.5698H62.3037V15.6625H65.8387V6.13134H65.7755Z" fill="black"/>
<path d="M71.6462 15.6627H68.1113V6.13155H71.6462V15.6627ZM71.8356 2.42834C71.8356 3.46038 70.9518 4.3103 69.8787 4.3103C68.8056 4.3103 67.9219 3.46038 67.9219 2.42834C67.9219 1.3963 68.8056 0.546387 69.8787 0.546387C70.9518 0.546387 71.8356 1.3963 71.8356 2.42834Z" fill="black"/>
<path d="M77.8324 15.6627H74.2974V8.92412H73.0349V6.13154H74.2974V4.85666C74.2974 3.52108 74.3605 2.54975 75.3074 1.51771C76.1911 0.546374 77.4536 0 78.7792 0C79.3474 0 79.7892 0.121417 80.2942 0.36425V3.27825C79.9155 3.09612 79.5367 2.97471 79.0317 2.97471C78.148 2.97471 77.8324 3.52108 77.8324 4.55312V6.07083H80.2942V8.86341H77.8324V15.6627Z" fill="black"/>
<path d="M85.3443 15.6627H81.8094V8.92412H80.5469V6.13154H81.8094V4.85666C81.8094 3.52108 81.8725 2.54975 82.8194 1.51771C83.7031 0.546374 84.9656 0 86.2912 0C86.8593 0 87.3012 0.121417 87.8062 0.36425V3.27825C87.4274 3.09612 87.0487 2.97471 86.5437 2.97471C85.66 2.97471 85.3443 3.52108 85.3443 4.55312V6.07083H87.8062V8.86341H85.3443V15.6627Z" fill="black"/>
<path d="M91.846 9.47029C92.0354 8.49896 92.9191 7.95259 93.9291 7.95259C94.876 7.95259 95.7597 8.55967 95.9491 9.47029H91.846ZM99.2316 11.1094C99.2316 7.83117 97.2116 5.76709 93.8029 5.76709C90.5835 5.76709 88.311 7.70975 88.311 10.8666C88.311 14.1448 90.7729 15.9661 94.0554 15.9661C96.3278 15.9661 98.5372 14.934 99.1053 12.6878H95.6966C95.3179 13.2949 94.7497 13.5377 93.9922 13.5377C92.5404 13.5377 91.7829 12.8092 91.7829 11.413H99.2316V11.1094Z" fill="black"/>
<path d="M104.345 15.6627H100.81V6.13155H104.345V15.6627ZM104.597 2.42834C104.597 3.46038 103.714 4.3103 102.64 4.3103C101.567 4.3103 100.684 3.46038 100.684 2.42834C100.684 1.3963 101.567 0.546387 102.64 0.546387C103.714 0.546387 104.597 1.3963 104.597 2.42834Z" fill="black"/>
<path d="M113.245 8.56C112.677 8.25646 111.92 8.07433 111.351 8.07433C110.973 8.07433 110.215 8.25646 110.215 8.74212C110.215 9.40991 111.351 9.47062 111.793 9.59204C113.435 9.89558 114.697 10.6241 114.697 12.4453C114.697 14.9344 112.298 16.0271 110.026 16.0271C108.637 16.0271 107.185 15.6629 105.986 14.9344L107.248 12.5667C107.943 13.0524 109.142 13.5381 110.026 13.5381C110.468 13.5381 111.162 13.356 111.162 12.8096C111.162 12.0811 110.026 12.0204 108.953 11.7168C107.88 11.4133 106.743 10.9276 106.743 9.22779C106.743 6.86017 108.953 5.82812 111.099 5.82812C112.235 5.82812 113.371 6.01025 114.381 6.43521L113.245 8.56Z" fill="black"/>
<path d="M119.494 9.47029C119.684 8.49896 120.568 7.95259 121.578 7.95259C122.524 7.95259 123.408 8.55967 123.598 9.47029H119.494ZM126.88 11.1094C126.88 7.83117 124.86 5.76709 121.451 5.76709C118.232 5.76709 115.959 7.70975 115.959 10.8666C115.959 14.1448 118.421 15.9661 121.704 15.9661C123.976 15.9661 126.186 14.934 126.754 12.6878H123.345C122.966 13.2949 122.398 13.5377 121.641 13.5377C120.189 13.5377 119.431 12.8092 119.431 11.413H126.88V11.1094Z" fill="black"/>
<path d="M131.993 7.34583C132.877 6.19237 133.824 5.82812 135.213 5.82812C137.864 5.82812 138.937 7.46725 138.937 9.77416V15.6629H135.402V10.9883C135.402 10.0777 135.528 8.49929 133.824 8.49929C132.372 8.49929 131.993 9.53133 131.993 10.7455V15.7236H128.458V6.13167H131.993V7.34583Z" fill="black"/>
<path d="M46.649 30.1719H47.0278C48.2903 30.1719 50.184 29.9897 49.8684 31.6896C49.6159 33.268 47.7221 33.2073 46.5859 33.2073H46.0809L46.649 30.1719ZM47.7221 35.9998C50.3734 35.9998 53.214 35.0285 53.6558 32.0538C53.9715 30.1111 53.3402 28.7149 51.2571 28.472V28.4113C52.5196 27.8649 53.1508 26.8329 53.3402 25.558C53.7821 22.8869 52.204 21.9155 49.6159 21.9155H44.1872L41.8516 35.9998H47.7221ZM47.5328 24.7081H47.7853C48.7952 24.7081 49.9946 24.7688 49.8052 26.0437C49.6159 27.2579 48.5428 27.3793 47.5328 27.3793H47.0909L47.5328 24.7081Z" fill="black"/>
<path d="M63.8188 30.7789H60.6626L62.9982 26.2865H63.0613L63.8188 30.7789ZM64.3869 33.5715L64.955 35.9998H68.995L65.7757 21.9155H61.6094L53.6558 35.9998H57.6957L59.0845 33.5715H64.3869Z" fill="black"/>
<path d="M72.5299 21.9155H76.3174L81.8724 30.5361H81.9355L83.3873 21.9155H87.1748L84.8392 35.9998H81.0517L75.4968 27.3793H75.4337L73.9818 35.9998H70.1943L72.5299 21.9155Z" fill="black"/>
<path d="M98.0322 21.9155H102.767L95.8228 28.5934L100.936 35.9998H96.0122L92.1616 29.8683H92.0985L91.0885 35.9998H87.301L89.6366 21.9155H93.4241L92.4772 27.7435H92.5404L98.0322 21.9155Z" fill="black"/>
</g>
<defs>
<clipPath id="clip0_13_513">
<rect width="139" height="36" fill="white"/>
</clipPath>
</defs>
</svg>
