<svg width="166" height="59" viewBox="0 0 166 59" fill="none" xmlns="http://www.w3.org/2000/svg">
<g clip-path="url(#clip0_60_240)">
<path d="M7.01408 33.2986L6.82704 35.5498H0V26.2637H7.01408L6.82704 28.5149H2.80563V29.8281H6.73352L6.64 31.9855H2.80563V33.2986H7.01408Z" fill="black"/>
<path d="M18.7978 30.766V35.5498H15.9921V31.1412C15.9921 30.4846 15.8051 30.297 15.3375 30.297C15.1505 30.297 14.9634 30.3908 14.7764 30.4846V35.5498H11.9707V31.1412C11.9707 30.3908 11.7837 30.297 11.4096 30.297C11.2226 30.297 10.942 30.4846 10.8485 30.5784V35.5498H8.04285V28.3272H10.755L10.8485 29.359C11.2226 28.6086 11.6902 28.1396 12.6254 28.1396C13.7476 28.1396 14.4958 28.6086 14.7764 29.4528C15.1505 28.5148 15.8051 28.1396 16.7403 28.1396C18.0496 28.1396 18.7978 29.0776 18.7978 30.766Z" fill="black"/>
<path d="M22.7257 25.2319H19.92V27.3893H22.7257V25.2319Z" fill="black"/>
<path d="M22.7257 28.4209H19.92V35.6435H22.7257V28.4209Z" fill="black"/>
<path d="M26.747 25.2319H23.9414V35.5499H26.747V25.2319Z" fill="black"/>
<path d="M26.8406 24.2003V20.2607H30.9555V24.2003H48.818H57.8896C57.7025 22.8871 57.3284 21.6677 56.9544 20.3545C56.3932 18.6661 55.7386 17.1653 54.9904 15.6645L52.2783 18.8537C50.8755 15.7583 48.818 12.9444 46.293 10.5994L50.1273 9.00477C49.0051 7.78537 47.6958 6.65978 46.293 5.62798C44.8901 4.59618 43.3938 3.75199 41.8975 3.00159L41.5234 7.12878C38.5307 5.53418 35.2575 4.40859 31.7972 4.03339L33.9482 0.468998C32.2648 0.187599 30.5814 0 28.898 0C27.2146 0 25.4377 0.187599 23.8479 0.468998L25.9989 4.03339C22.4451 4.40859 19.1718 5.53418 16.2727 7.12878L15.8986 3.00159C14.4023 3.75199 12.9994 4.59618 11.5966 5.62798C10.1938 6.65978 8.88451 7.78537 7.76225 9.00477L11.5966 10.5994C9.07155 12.9444 7.01408 15.6645 5.61127 18.8537L2.89915 15.6645C2.15099 17.1653 1.49634 18.7599 0.935211 20.3545C0.561127 21.5739 0.187042 22.8871 0 24.2003H9.07155H26.8406ZM30.9555 9.00477C38.1566 9.75517 44.2355 14.07 47.3217 20.2607H34.8834V16.3211H30.9555V9.00477ZM26.8406 9.00477V16.3211H22.9127V20.2607H10.4744C13.5606 14.07 19.6394 9.66137 26.8406 9.00477Z" fill="black"/>
<path d="M33.7611 28.5149V29.8281H37.3149L37.2214 32.0793H33.8546V35.5499H30.9554V26.1699H37.5019L37.4084 28.4211L33.7611 28.5149ZM43.3938 28.4211L43.1132 31.0475C42.9261 31.0475 42.7391 31.0475 42.5521 31.0475C41.9909 31.0475 41.5233 31.1413 41.1492 31.4227V35.6437H38.1566L38.2501 28.4211H40.9622L41.0557 30.1095C41.3363 28.7963 41.9909 28.3273 42.6456 28.3273C42.8326 28.2335 43.1132 28.3273 43.3938 28.4211ZM50.7819 32.6421H46.5735C46.667 33.4863 47.2281 33.7677 48.5374 33.7677C49.1921 33.7677 49.9402 33.6739 50.5949 33.4863L50.4078 35.3623C49.8467 35.6437 49.005 35.8313 47.9763 35.8313C44.8901 35.8313 43.8614 34.2367 43.8614 32.0793C43.8614 29.8281 45.0771 28.3273 47.5087 28.3273C50.2208 28.3273 50.969 30.2033 50.969 31.9855C50.8754 32.0793 50.7819 32.4545 50.7819 32.6421ZM46.48 31.2351H48.4439C48.3504 30.2971 47.9763 30.1095 47.4152 30.1095C46.854 30.1095 46.5735 30.2971 46.48 31.2351Z" fill="black"/>
<path d="M58.2637 28.4209L55.9256 34.6117C54.8969 37.1443 54.4293 37.8009 52.5589 37.8009C52.2783 37.8009 51.7172 37.7071 51.3431 37.6133L51.5302 35.8311C51.8107 35.9249 52.0913 35.9249 52.4654 35.9249C52.8394 35.9249 53.2135 35.8311 53.3071 35.4559L50.782 28.4209H53.5876L54.6164 32.4543L55.5516 28.4209H58.2637Z" fill="black"/>
<path d="M36.4732 38.5518C34.4157 40.334 31.7971 41.3657 28.898 41.3657C25.9988 41.3657 23.3802 40.334 21.3228 38.5518H13.6541C16.7402 43.8045 22.445 47.3689 28.898 47.3689C35.351 47.3689 41.1493 43.8045 44.1419 38.5518H36.4732ZM20.6681 42.2099C20.3876 42.5851 19.92 42.6789 19.5459 42.3975C19.1718 42.1161 19.0783 41.6471 19.3588 41.2719C19.6394 40.8968 20.107 40.803 20.4811 41.0843C20.8552 41.3657 20.9487 41.8347 20.6681 42.2099ZM24.9701 44.1797C24.7831 44.5549 24.409 44.8363 23.9414 44.7425C23.4738 44.5549 23.2867 44.1797 23.3802 43.7107C23.5673 43.3355 23.9414 43.0541 24.409 43.1479C24.8766 43.2417 25.0636 43.7107 24.9701 44.1797ZM28.898 45.4929C28.4304 45.4929 28.0563 45.1177 28.0563 44.6487C28.0563 44.1797 28.4304 43.8045 28.898 43.8045C29.3656 43.8045 29.7397 44.1797 29.7397 44.6487C29.7397 45.1177 29.2721 45.4929 28.898 45.4929ZM33.7611 44.7425C33.2935 44.9301 32.9194 44.6487 32.7324 44.1797C32.5453 43.8045 32.8259 43.3355 33.2935 43.1479C33.6676 42.9603 34.1352 43.2417 34.3222 43.7107C34.4157 44.0859 34.2287 44.5549 33.7611 44.7425ZM38.2501 42.4913C37.876 42.7727 37.4084 42.6789 37.1279 42.3037C36.8473 41.9285 36.9408 41.4596 37.3149 41.1782C37.689 40.8968 38.1566 40.9905 38.4371 41.3657C38.6242 41.6471 38.5307 42.2099 38.2501 42.4913Z" fill="black"/>
<path d="M26.7205 57.452L26.6414 58.9507L28.1356 59.0301L28.2148 57.5314L26.7205 57.452Z" fill="black"/>
<path d="M23.7024 57.129L23.4659 58.6108L24.9434 58.848L25.1798 57.3661L23.7024 57.129Z" fill="black"/>
<path d="M20.9054 56.3189L20.5144 57.7676L21.9588 58.1597L22.3498 56.711L20.9054 56.3189Z" fill="black"/>
<path d="M18.102 55.3635L17.5607 56.7627L18.9557 57.3057L19.4971 55.9065L18.102 55.3635Z" fill="black"/>
<path d="M15.419 54.1703L14.7334 55.5044L16.0635 56.1921L16.7491 54.858L15.419 54.1703Z" fill="black"/>
<path d="M12.8563 52.5078L12.0341 53.7617L13.2842 54.5864L14.1065 53.3325L12.8563 52.5078Z" fill="black"/>
<path d="M10.5557 50.7108L9.60608 51.8706L10.7624 52.823L11.712 51.6632L10.5557 50.7108Z" fill="black"/>
<path d="M8.41321 48.6435L7.34692 49.6963L8.3966 50.7658L9.46289 49.7129L8.41321 48.6435Z" fill="black"/>
<path d="M6.58732 46.3984L5.41614 47.3325L6.34746 48.5072L7.51864 47.5731L6.58732 46.3984Z" fill="black"/>
<path d="M4.92099 43.9949L3.65808 44.7998L4.46057 46.0665L5.72348 45.2616L4.92099 43.9949Z" fill="black"/>
<path d="M3.51818 41.2914L2.17761 41.958L2.84229 43.3026L4.18286 42.6359L3.51818 41.2914Z" fill="black"/>
<path d="M2.40778 38.6241L1.00452 39.145L1.5239 40.5525L2.92716 40.0315L2.40778 38.6241Z" fill="black"/>
<path d="M31.1019 57.4611L29.6077 57.5405L29.6868 59.0392L31.1811 58.9598L31.1019 57.4611Z" fill="black"/>
<path d="M34.006 57.1071L32.5286 57.3442L32.765 58.8261L34.2425 58.589L34.006 57.1071Z" fill="black"/>
<path d="M36.9088 56.3925L35.4644 56.7847L35.8553 58.2334L37.2998 57.8412L36.9088 56.3925Z" fill="black"/>
<path d="M39.7111 55.4033L38.316 55.9463L38.8574 57.3455L40.2525 56.8025L39.7111 55.4033Z" fill="black"/>
<path d="M42.3143 54.1551L40.9843 54.8428L41.6699 56.1768L43 55.4892L42.3143 54.1551Z" fill="black"/>
<path d="M44.8126 52.5181L43.5624 53.3428L44.3846 54.5967L45.6348 53.772L44.8126 52.5181Z" fill="black"/>
<path d="M47.1287 50.7263L45.9723 51.6787L46.9219 52.8385L48.0782 51.8861L47.1287 50.7263Z" fill="black"/>
<path d="M49.2543 48.6483L48.2046 49.7178L49.2709 50.7706L50.3206 49.7011L49.2543 48.6483Z" fill="black"/>
<path d="M51.2343 46.3956L50.303 47.5703L51.4742 48.5044L52.4055 47.3297L51.2343 46.3956Z" fill="black"/>
<path d="M52.8553 43.9228L52.0529 45.1895L53.3158 45.9943L54.1183 44.7277L52.8553 43.9228Z" fill="black"/>
<path d="M54.2303 41.3219L53.5657 42.6665L54.9062 43.3332L55.5709 41.9886L54.2303 41.3219Z" fill="black"/>
<path d="M55.369 38.5857L54.8496 39.9932L56.2529 40.5141L56.7723 39.1066L55.369 38.5857Z" fill="black"/>
<path d="M53.5876 41.0844L54.1488 39.7712L52.933 39.2084C53.0265 39.0208 53.12 38.8332 53.12 38.5518H52.8395H51.6237H51.3431C47.7893 47.4627 39.0919 53.7473 28.8981 53.7473C18.7043 53.7473 10.0068 47.4627 6.45299 38.5518H6.17242H4.86313H4.58257C4.67609 38.7394 4.76961 38.927 4.76961 39.2084L3.55383 39.7712L4.11496 41.0844L5.33073 40.5216C5.51778 40.8968 5.70482 41.272 5.89186 41.6472L4.76961 42.3037L5.51778 43.6169L6.64003 42.9603C6.82707 43.3355 7.10764 43.7107 7.29468 43.9921L6.17242 44.7425L7.01411 45.9619L8.13637 45.2115C8.41693 45.5867 8.60397 45.8681 8.88454 46.2433L7.8558 47.0875L8.79102 48.2131L9.81975 47.2751C10.1003 47.5565 10.3809 47.9317 10.755 48.2131L9.81975 49.2449L10.942 50.2767L11.8772 49.2449C12.1578 49.5263 12.5319 49.8077 12.8124 50.0891L12.0643 51.2147L13.28 52.0589L14.0282 50.9333C14.4023 51.2147 14.7764 51.4023 15.0569 51.5899L14.4023 52.7155L15.7116 53.4659L16.3662 52.3403C16.7403 52.5279 17.1144 52.7155 17.4885 52.9031L16.9274 54.1225L18.2367 54.7791L18.7978 53.5597C19.1719 53.7473 19.5459 53.8411 20.0136 54.0287L19.6395 55.2481L21.0423 55.7171L21.4164 54.4977C21.7905 54.5915 22.2581 54.6853 22.6321 54.8729L22.3516 56.1861L23.7544 56.4675L24.035 55.1543C24.409 55.2481 24.8767 55.3419 25.2507 55.3419L25.0637 56.6551L26.56 56.8427L26.7471 55.5295C27.2147 55.5295 27.5888 55.6233 27.9628 55.6233V56.9365H29.4592V55.6233C29.8333 55.6233 30.3009 55.6233 30.7685 55.5295L30.9555 56.8427L32.4519 56.6551L32.3583 55.2481C32.8259 55.1543 33.2 55.1543 33.5741 55.0605L33.8547 56.3737L35.2575 56.0923L34.9769 54.7791C35.351 54.6853 35.8186 54.5915 36.1927 54.4039L36.5668 55.6233L37.9696 55.1543L37.5955 53.9349C37.9696 53.7473 38.3437 53.6535 38.8113 53.4659L39.3724 54.6853L40.6817 54.0287L40.1206 52.9031C40.4947 52.7155 40.8688 52.5279 41.2428 52.3403L41.8975 53.4659L43.2068 52.7155L42.5521 51.5899C42.9262 51.4023 43.3003 51.1209 43.5809 50.9333L44.329 52.0589L45.5448 51.2147L44.7967 49.9953C45.1707 49.7139 45.4513 49.4325 45.8254 49.1511L46.7606 50.1829L47.8829 49.1511L46.9476 48.1193C47.2282 47.8379 47.5088 47.5565 47.7893 47.1813L48.8181 48.0255L49.7533 46.8999L48.7245 46.0557C49.0051 45.7743 49.2857 45.3991 49.4727 45.0239L50.595 45.7743L51.4367 44.5549L50.4079 43.9921C50.595 43.6169 50.8755 43.2417 51.0626 42.9603L52.1848 43.6169L52.933 42.3037L51.8107 41.6472C51.9978 41.272 52.1848 40.8968 52.3719 40.5216L53.5876 41.0844Z" fill="black"/>
<path d="M28.898 48.4007C21.6969 48.4007 15.5245 44.3673 12.3448 38.5518H7.6687C11.129 46.8061 19.3588 52.6217 28.898 52.6217C38.4372 52.6217 46.5735 46.8061 50.1273 38.5518H45.4512C42.2715 44.4611 36.0056 48.4007 28.898 48.4007Z" fill="black"/>
<path d="M88.2839 35.7376L87.9098 38.5515H77.9966V24.2002H88.0033L87.6293 27.0142H81.5504V29.922H87.4422L87.2552 32.736H81.5504V35.6438C81.5504 35.7376 88.2839 35.7376 88.2839 35.7376Z" fill="black"/>
<path d="M107.269 30.8601V38.5517H103.715V31.5167C103.715 30.5787 103.154 30.0159 102.125 30.0159C101.564 30.0159 100.909 30.2035 100.442 30.6725V30.8601V38.5517H96.8878V31.5167C96.8878 30.5787 96.3267 30.0159 95.3915 30.0159C94.7369 30.0159 94.0822 30.2973 93.5211 30.8601V38.5517H89.9673V27.4833H92.96L93.3341 29.2655C93.8952 27.8585 95.2045 27.2019 96.6073 27.2019C98.3842 27.2019 99.6 27.9523 100.161 29.1717C100.909 27.9523 101.938 27.2019 103.434 27.2019C105.866 27.1081 107.269 28.6089 107.269 30.8601Z" fill="black"/>
<path d="M109.326 23.356H112.88V26.2637H109.326V23.356ZM109.326 27.4831H112.88V38.5515H109.326V27.4831Z" fill="black"/>
<path d="M114.844 23.356H118.398V38.5515H114.844V23.356Z" fill="black"/>
<path d="M127.75 27.108V30.2034H134.016L133.642 33.0174H127.75V38.5515H124.196V24.2002H134.483L134.109 27.0142L127.75 27.108Z" fill="black"/>
<path d="M142.994 27.6711L142.62 30.5789C142.152 30.4851 141.685 30.3913 141.31 30.3913C140.282 30.3913 139.627 30.8603 139.347 31.6107V38.5519H135.793V27.4835H138.785L139.159 29.5471C139.627 27.9525 140.562 27.3897 141.591 27.3897C142.152 27.2959 142.62 27.4835 142.994 27.6711Z" fill="black"/>
<path d="M154.216 34.2371H146.922C147.296 35.7379 148.325 36.1131 150.008 36.1131C151.13 36.1131 152.533 35.9255 153.842 35.3627L153.468 38.0829C152.346 38.6457 150.943 38.9271 149.54 38.9271C145.612 38.9271 143.274 37.0511 143.274 33.1115C143.274 29.4533 145.051 27.2021 148.979 27.2021C152.439 27.2021 154.216 29.3595 154.216 32.7363C154.31 33.1115 154.216 33.7681 154.216 34.2371ZM146.828 32.0797H150.943C150.85 30.5789 150.289 29.8285 148.979 29.8285C147.67 29.8285 147.015 30.5789 146.828 32.0797Z" fill="black"/>
<path d="M166 27.4834L161.792 38.7394C160.482 42.21 158.986 42.9604 156.835 42.9604C156.274 42.9604 155.619 42.8666 155.058 42.679L155.432 40.0526C155.806 40.1464 156.18 40.2402 156.554 40.2402C157.49 40.2402 158.144 40.0526 158.425 39.1146L158.612 38.6456L154.31 27.3896H157.864L160.108 34.1432L160.295 34.7998L162.54 27.3896L166 27.4834Z" fill="black"/>
</g>
<defs>
<clipPath id="clip0_60_240">
<rect width="166" height="59" fill="white"/>
</clipPath>
</defs>
</svg>
