<svg width="180" height="37" viewBox="0 0 180 37" fill="none" xmlns="http://www.w3.org/2000/svg">
<g clip-path="url(#clip0_60_208)">
<path fill-rule="evenodd" clip-rule="evenodd" d="M64.785 18.8647C63.2003 27.5223 57.7006 28.6159 53.0398 28.6159C48.379 28.6159 44.1843 25.5174 45.3961 18.7736C46.3282 13.4878 49.4976 8.65779 57.3277 9.02233C62.641 9.29572 65.8104 12.941 64.785 18.8647ZM56.3023 12.8499C54.6245 12.8499 52.6669 13.6701 51.5483 18.8647C50.3365 24.6061 52.7601 24.9706 53.9719 24.9706C55.0905 24.9706 57.3277 24.4238 58.5395 18.8647C59.3785 15.0371 58.726 12.8499 56.3023 12.8499Z" fill="black"/>
<path fill-rule="evenodd" clip-rule="evenodd" d="M76.5303 27.8867L76.2507 28.1601C75.1321 28.3423 73.7339 28.5246 72.9881 28.5246C70.2849 28.5246 66.2766 28.1601 67.9545 21.4162C69.0731 16.8596 69.912 13.4877 69.912 13.4877L67.3952 13.5788L67.2087 13.3054L68.2341 9.7512L68.5138 9.56894H70.8442L71.8695 5.01229L72.1492 4.73889C74.8525 4.10096 75.5982 3.91869 78.115 3.28076L78.3014 3.37189L76.7168 9.56894L80.4454 9.47781L80.6318 9.7512C80.1658 11.2093 79.9793 11.665 79.5133 13.3054L79.2336 13.5788L75.8778 13.4877C75.8778 13.4877 75.2253 16.2216 74.2932 20.0492C73.2678 24.1502 73.8271 23.968 74.8525 24.3325C75.6914 24.697 76.9032 24.2414 77.5557 24.0591L77.7421 24.2414L76.5303 27.8867Z" fill="black"/>
<path fill-rule="evenodd" clip-rule="evenodd" d="M89.6738 10.8449C90.606 10.207 92.1907 9.11342 94.5211 9.11342C98.1565 9.11342 100.58 11.7563 100.58 16.2218C100.58 18.7735 99.648 21.7809 97.7836 23.9681C94.1482 28.3425 89.6738 28.2514 85.852 28.2514L83.8012 36.7267L83.5216 36.909C82.6826 36.909 81.9369 36.909 81.098 36.909C79.8862 36.909 78.7676 37.0001 77.4626 37.0001L77.2761 36.7267C77.2761 36.7267 78.5811 32.9903 80.1658 26.5198C81.8437 19.776 83.4284 11.8474 83.5216 10.207L83.8012 9.93361L89.9535 8.93115L90.1399 9.20455L89.6738 10.8449ZM86.6909 24.3326C88.3688 24.5149 90.2331 23.9681 91.5382 22.9656C93.0296 21.7809 94.3346 19.3203 94.3346 16.5863C94.3346 13.5789 92.3771 13.2144 91.6314 13.2144C90.606 13.2144 89.7671 13.7612 89.0213 14.2169L86.6909 24.3326Z" fill="black"/>
<path fill-rule="evenodd" clip-rule="evenodd" d="M100.86 28.0691C101.139 26.9755 102.631 20.6874 104.215 13.6701C105.614 7.56421 106.546 3.82776 106.825 1.00264L107.105 0.72924L111.02 0.0913086L111.207 0.364708L110.181 4.28343L108.503 11.1184C109.995 10.2982 111.486 9.56914 113.817 9.56914C117.359 9.56914 120.435 11.9386 120.435 16.4041C120.435 18.2268 119.876 21.5987 117.452 24.3327C114.19 27.978 110.181 28.2514 105.52 28.4337H103.563H101.046L100.86 28.0691ZM105.334 25.4263C107.385 25.5174 110.368 25.4263 112.791 23.877C115.495 22.0544 116.706 18.9558 116.706 16.6775C116.706 13.4879 114.749 12.212 112.418 12.212C110.554 12.212 109.249 13.0322 108.13 13.6701C108.037 13.7613 105.52 24.6061 105.334 25.4263Z" fill="black"/>
<path fill-rule="evenodd" clip-rule="evenodd" d="M139.917 16.9507C138.612 22.4186 138.426 23.7856 137.68 27.9778L137.4 28.2512L134.044 28.3423L133.858 28.0689L134.138 26.6108C133.485 27.0664 131.9 28.4334 128.824 28.4334C125.096 28.4334 122.113 25.8817 122.113 21.5073C122.113 18.6822 123.511 15.6748 125.002 13.9433C128.358 10.1157 133.019 9.84229 136.375 9.84229H141.408L141.595 10.1157L139.917 16.9507ZM137.307 12.4851C136.748 12.4851 136.188 12.4851 135.722 12.4851C134.511 12.4851 132.18 12.5763 130.036 13.9433C126.214 16.495 126.121 21.0516 126.121 21.2339C126.121 22.9654 127.053 25.6994 130.316 25.6994C131.248 25.6994 132.926 25.5172 134.697 23.9679L137.307 12.4851Z" fill="black"/>
<path fill-rule="evenodd" clip-rule="evenodd" d="M157.908 27.9777L157.628 28.1599L153.9 28.2511L153.713 27.9777C154.272 25.6082 156.51 17.5885 156.51 15.1279C156.51 13.0319 155.205 12.3028 153.433 12.3028C151.196 12.3028 149.705 13.3964 148.586 14.2166C147.281 20.1402 146.815 22.054 145.697 27.9777L145.417 28.1599L141.688 28.2511L141.502 27.9777C141.502 27.9777 142.62 23.6033 143.553 19.1378C144.298 15.5836 144.951 12.6673 145.23 10.2979L145.51 10.0245C147.188 9.84221 147.654 9.75108 149.332 9.38654L149.518 9.65994L149.052 11.4826C150.451 10.5713 152.315 9.29541 155.298 9.29541C156.51 9.29541 160.425 9.56881 160.425 13.8521C160.518 16.5861 158.187 25.5171 157.908 27.9777Z" fill="black"/>
<path fill-rule="evenodd" clip-rule="evenodd" d="M171.704 17.4066L177.297 27.8869L177.11 28.1603L173.102 28.2514L172.822 28.0691C171.89 25.6086 167.789 17.7711 167.789 17.7711C166.763 22.2366 166.484 23.3302 165.645 27.978L165.365 28.1603L161.73 28.2514L161.543 28.0691C161.543 28.0691 163.501 20.2317 165.179 12.9411C165.924 9.56914 167.136 4.19229 167.695 0.911506L167.975 0.72924L171.89 0.0913086L172.077 0.364708C171.331 2.73417 167.882 17.3154 167.882 17.3154C170.492 15.1283 174.78 10.6627 175.339 10.0248L175.712 9.84254H179.907L180 10.1159C178.975 10.9361 177.11 12.5765 176.365 13.2145L171.704 17.4066Z" fill="black"/>
<path fill-rule="evenodd" clip-rule="evenodd" d="M0 17.4975C0 7.83744 8.01657 0 17.8975 0V6.28818C11.5588 6.28818 6.52512 11.3005 6.52512 17.4975C6.52512 23.6946 11.652 28.7069 17.9907 28.7069C24.2361 28.7069 29.4562 23.7857 29.4562 17.4975H35.8881C35.8881 27.1576 27.8716 34.9951 17.9907 34.9951C8.01657 34.9951 0 27.1576 0 17.4975Z" fill="black"/>
<path fill-rule="evenodd" clip-rule="evenodd" d="M9.97412 17.4978C9.97412 13.2145 13.5163 9.75146 17.8975 9.75146C22.2786 9.75146 25.8208 13.2145 25.8208 17.4978C25.8208 21.781 22.2786 25.2441 17.8975 25.2441C13.5163 25.2441 9.97412 21.781 9.97412 17.4978Z" fill="black"/>
<path fill-rule="evenodd" clip-rule="evenodd" d="M23.3972 7.65497C23.3972 5.19438 25.448 3.18945 27.9648 3.18945C30.4816 3.18945 32.5324 5.19438 32.5324 7.65497C32.5324 10.1156 30.4816 12.1205 27.9648 12.1205C25.448 12.1205 23.3972 10.1156 23.3972 7.65497Z" fill="black"/>
</g>
<defs>
<clipPath id="clip0_60_208">
<rect width="180" height="37" fill="white"/>
</clipPath>
</defs>
</svg>
