<svg version="1.2" xmlns="http://www.w3.org/2000/svg" viewBox="0 0 309 309" width="309" height="309">
	<title>Group 83-svg</title>
	<style>
		.s0 { fill: #000000 } 
	</style>
	<path id="Layer" class="s0" d="m3.3 149.8c0.2-13.3 2.4-26 6.2-38l6.5 2.2-2.6-17-12.9 11.6 5.9 2.1c-4 12.5-6.2 25.6-6.4 39.1-0.3 19.6 3.6 38.7 11.3 56.2l3-1.2c-7.3-16.9-11.3-35.5-11-55z"/>
	<path id="Layer" class="s0" d="m251 274.3l-2.3-2.3c-17 13.7-37.5 23.2-59.8 27.2l-0.8-6.4-14.1 10.1 16.2 6.1-0.9-6.6c22.6-4 43.7-13.6 61.7-28.1z"/>
	<path id="Layer" class="s0" d="m251 38l-6.8-16.1-4.2 5.1c-21-15.2-45.8-24.3-72-26v3.2c26 1.8 50 10.9 70 25.3l-4.1 5.1z"/>
</svg>