<svg version="1.2" xmlns="http://www.w3.org/2000/svg" viewBox="0 0 638 234" width="638" height="234">
	<title>Raiffeisenbank logo-ai</title>
	<style>
		.s0 { fill: #231f20 } 
		.s1 { fill: #fff100 } 
	</style>
	<g id="_Artboards_">
	</g>
	<g id="Layer 1">
		<g id="&lt;Group&gt;">
			<g id="&lt;Group&gt;">
				<g id="&lt;Group&gt;">
					<g id="&lt;Group&gt;">
						<path id="&lt;Path&gt;" class="s0" d="m98.7 63.3h113.2v113.3l-113.2-0.1z"/>
						<g id="&lt;Group&gt;">
							<g id="&lt;Clip Group&gt;">
								<g id="&lt;Group&gt;">
									<g id="&lt;Group&gt;">
										<path id="&lt;Path&gt;" class="s1" d="m101.7 173.4v-106.9h107l-0.1 106.9z"/>
									</g>
								</g>
							</g>
						</g>
					</g>
					<path id="&lt;Path&gt;" class="s0" d="m155.1 133.5l34.1 34 13.3-13.3-34.1-34.1 6.6-6.6v-13.2l4.8-4.8v11l4.6 4.6 16.7-16.7 4.5 4.5c0-2.9-0.9-12.7-8.8-20.5-8.9-8.6-17.7-3.5-20.8-0.5l-16.1 16.1 4 4-8.8 8.8-8.9-8.8 4-4-16-16.1c-3.1-3-12-8.1-20.8 0.5-7.9 7.8-8.6 17.6-8.6 20.5l4.3-4.5 16.6 16.7 4.7-4.6v-11l4.7 4.8v13.2l6.7 6.6-33.8 33.8 13.3 13.3z"/>
				</g>
				<path id="&lt;Compound Path&gt;" fill-rule="evenodd" class="s0" d="m269.5 109.6h-15l-11.4-17.8h-0.1v17.8h-12.1v-46.3h18c9.2 0 16.1 4.4 16.1 14.3 0 6.4-3.5 11.9-10.1 13zm-26.5-25.5h1.2c3.9 0 8.3-0.8 8.3-5.8 0-5-4.4-5.8-8.3-5.8h-1.2z"/>
				<path id="&lt;Compound Path&gt;" fill-rule="evenodd" class="s0" d="m307 109.6h-11.2v-3.5h-0.2c-1.9 3.2-5.8 4.6-9.5 4.6-9.3 0-15.9-7.8-15.9-16.8 0-9.1 6.4-16.8 15.8-16.8 3.6 0 7.4 1.3 9.8 4.1v-3.1h11.2zm-25.2-15.7c0 4 2.6 7.1 7.1 7.1 4.6 0 7.2-3.1 7.2-7.1 0-3.9-2.6-7.1-7.2-7.1-4.5 0-7.1 3.2-7.1 7.1z"/>
				<path id="&lt;Compound Path&gt;" class="s0" d="m325.6 109.6h-11.2v-31.5h11.2zm0.7-43.6c0 3.4-2.9 6.2-6.3 6.2-3.5 0-6.3-2.8-6.3-6.2 0-3.5 2.8-6.3 6.3-6.3 3.4 0 6.3 2.8 6.3 6.3z"/>
				<path id="&lt;Compound Path&gt;" class="s0" d="m345.2 109.6h-11.2v-22.3h-3.9v-9.2h3.9v-4c0-4.3 0.2-7.5 3.3-11 2.7-3.3 6.7-5.1 10.9-5.1 1.8 0 3.3 0.3 4.8 1.1v9.7c-1.2-0.6-2.4-1.1-3.9-1.1-2.9 0-3.9 1.8-3.9 5.3v5.1h7.8v9.2h-7.8z"/>
				<path id="&lt;Compound Path&gt;" class="s0" d="m369.1 109.6h-11.2v-22.3h-3.9v-9.2h3.9v-4c0-4.3 0.1-7.5 3.2-11 2.8-3.3 6.8-5.1 11-5.1 1.7 0 3.3 0.3 4.8 1.1v9.7c-1.3-0.6-2.5-1.1-3.9-1.1-2.9 0-3.9 1.8-3.9 5.3v5.1h7.8v9.2h-7.8z"/>
				<path id="&lt;Compound Path&gt;" fill-rule="evenodd" class="s0" d="m413 95.8h-23.5c0 4.5 2.4 7 7 7 2.4 0 4.1-0.8 5.3-2.9h10.8c-1.8 7.4-8.9 10.8-16 10.8-10.5 0-18.3-5.9-18.3-16.8 0-10.5 7.2-16.8 17.5-16.8 10.9 0 17.2 6.7 17.2 17.5zm-10.3-6.5c-0.6-3-3.4-4.9-6.4-4.9-3.2 0-6 1.7-6.6 4.9z"/>
				<path id="&lt;Compound Path&gt;" class="s0" d="m429.3 109.6h-11.2v-31.5h11.2zm0.7-43.6c0 3.4-2.8 6.2-6.3 6.2-3.4 0-6.3-2.8-6.3-6.2 0-3.5 2.9-6.3 6.3-6.3 3.5 0 6.3 2.8 6.3 6.3z"/>
				<path id="&lt;Compound Path&gt;" class="s0" d="m457.5 86.2c-1.7-0.9-4.1-1.5-6-1.5-1.3 0-3.5 0.5-3.5 2.1 0 2.2 3.5 2.5 5.1 2.8 5.2 1 9.1 3.5 9.1 9.4 0 8.3-7.6 11.7-14.9 11.7-4.5 0-8.9-1.3-12.7-3.6l4.1-7.8c2.2 1.6 6 3.2 8.8 3.2 1.4 0 3.5-0.7 3.5-2.4 0-2.5-3.5-2.6-7-3.5-3.5-1-7-2.7-7-8.3 0-7.8 7-11.2 13.9-11.2 3.6 0 7.1 0.5 10.4 2z"/>
				<path id="&lt;Compound Path&gt;" fill-rule="evenodd" class="s0" d="m500.6 95.8h-23.5c0 4.5 2.4 7 7 7 2.4 0 4.1-0.8 5.3-2.9h10.8c-1.8 7.4-8.9 10.8-16.1 10.8-10.4 0-18.2-5.9-18.2-16.8 0-10.5 7.2-16.8 17.4-16.8 11 0 17.3 6.7 17.3 17.5zm-10.4-6.5c-0.5-3-3.3-4.9-6.3-4.9-3.3 0-6 1.7-6.6 4.9z"/>
				<path id="&lt;Compound Path&gt;" class="s0" d="m516.9 82.2h0.1c2.6-3.8 5.7-5.1 10.1-5.1 8.5 0 11.9 5.3 11.9 13.1v19.4h-11.2v-15.3c0-3 0.5-8.3-5.1-8.3-4.5 0-5.8 3.4-5.8 7.3v16.3h-11.2v-31.5h11.2z"/>
				<path id="&lt;Compound Path&gt;" fill-rule="evenodd" class="s0" d="m231.3 176.6l7.3-46.4h17.3c8.2 0 13.2 3.2 11.8 12.1-0.6 4.2-2.5 7.6-6.6 9.5v0.1c6.5 0.8 8.6 5.3 7.6 11.8-1.5 9.7-10.4 12.9-18.8 12.9zm13.5-9.2h1.5c3.6 0 9.6 0.2 10.4-4.9 0.9-5.6-5.2-5.1-9.1-5.1h-1.2zm3-18.9h1.3c3.2 0 6.6-0.6 7.3-4.5 0.6-4.3-3.1-4.5-6.4-4.5h-0.8z"/>
				<path id="&lt;Compound Path&gt;" fill-rule="evenodd" class="s0" d="m286 168.6l-4.4 8h-12.9l25.3-46.4h13.1l10.2 46.4h-12.9l-1.7-8zm12.2-24h-0.1l-7.4 14.7h10.1z"/>
				<path id="&lt;Compound Path&gt;" class="s0" d="m328.4 130.2h12l17.6 28.4h0.1l4.5-28.4h12.1l-7.4 46.4h-12l-17.6-28.4h-0.1l-4.5 28.4h-12.1z"/>
				<path id="&lt;Compound Path&gt;" class="s0" d="m409.3 130.2h15l-21.9 22 16.2 24.4h-15.6l-12.4-20.1h-0.1l-3.2 20.1h-12.1l7.4-46.4h12l-3 19.2h0.1z"/>
			</g>
		</g>
	</g>
</svg>